<?xml version="1.0" standalone="no"?>
<!DOCTYPE svg PUBLIC "-//W3C//DTD SVG 20010904//EN"
 "http://www.w3.org/TR/2001/REC-SVG-20010904/DTD/svg10.dtd">
<svg version="1.0" xmlns="http://www.w3.org/2000/svg"
 width="235.000000pt" height="225.000000pt" viewBox="0 0 235.000000 225.000000"
 preserveAspectRatio="xMidYMid meet">

<g transform="translate(0.000000,225.000000) scale(0.100000,-0.100000)"
fill="#000000" stroke="none">
<path d="M0 1125 l0 -1125 1175 0 1175 0 0 1125 0 1125 -1175 0 -1175 0 0
-1125z m1998 502 c14 -14 18 -43 22 -153 8 -224 9 -224 -207 -224 -146 0 -153
1 -180 24 -27 24 -28 27 -31 146 -7 230 -10 227 211 225 144 -1 170 -4 185
-18z m-1658 -27 c0 13 1 13 10 0 9 -13 10 -13 10 0 0 13 1 13 10 0 9 -13 10
-13 10 0 0 13 1 13 10 0 9 -13 10 -13 10 0 0 13 1 13 10 0 9 -13 10 -13 10 0
0 13 1 13 10 0 9 -13 10 -13 10 0 0 13 1 13 10 0 9 -13 10 -13 10 0 0 13 1 13
10 0 9 -13 10 -13 10 0 0 13 1 13 10 0 9 -13 10 -13 10 0 0 13 1 13 10 0 9
-13 10 -13 10 0 0 13 1 13 10 0 9 -13 10 -13 10 0 0 13 1 13 10 0 9 -13 10
-13 10 0 0 13 1 13 10 0 9 -13 10 -13 10 0 0 13 1 13 10 0 9 -13 10 -13 10 0
0 13 1 13 10 0 9 -13 10 -13 10 0 0 13 1 13 10 0 9 -13 10 -13 10 0 0 13 1 13
10 0 9 -13 10 -13 10 0 0 13 1 13 10 0 9 -13 10 -13 10 0 0 13 1 13 10 0 9
-13 10 -13 11 0 4 42 18 -88 18 -175 l1 -100 153 -152 152 -152 147 -3 c146
-3 148 -3 175 -31 l28 -27 0 -155 0 -154 -28 -28 -27 -28 -161 0 -161 0 -24
28 c-23 27 -24 34 -24 175 l0 147 -152 152 -153 153 -138 0 c-76 0 -147 5
-158 10 -39 22 -48 58 -43 186 6 142 11 174 25 153 7 -12 9 -12 9 1z m660 0
c0 13 1 13 10 0 9 -13 10 -13 10 0 0 13 1 13 10 0 9 -13 10 -13 10 0 0 13 1
13 10 0 9 -13 10 -13 10 0 0 13 1 13 10 0 9 -13 10 -13 10 0 0 13 1 13 10 0 9
-13 10 -13 10 0 0 13 1 13 10 0 9 -13 10 -13 10 0 0 13 1 13 10 0 9 -13 10
-13 10 0 0 13 1 13 10 0 9 -13 10 -13 10 0 0 13 1 13 10 0 9 -13 10 -13 10 0
0 13 1 13 10 0 9 -13 10 -13 10 0 0 13 1 13 10 0 9 -13 10 -13 10 0 0 13 1 13
10 0 9 -13 10 -13 10 0 0 13 1 13 10 0 9 -13 10 -13 10 0 0 13 1 13 10 0 9
-13 10 -13 10 0 0 13 1 13 10 0 9 -13 10 -13 10 0 0 13 1 13 10 0 9 -13 10
-13 10 0 0 13 1 13 10 0 7 -11 10 -12 10 -2 0 10 3 10 15 -2 12 -11 15 -42 15
-143 l0 -128 153 -152 152 -152 147 -3 c144 -3 148 -4 174 -29 25 -26 26 -28
27 -182 l2 -156 -28 -28 c-27 -28 -29 -28 -168 -31 -221 -5 -229 2 -229 215
l0 138 -152 152 -153 153 -142 0 c-135 0 -143 1 -170 24 -25 21 -28 31 -31
100 -5 95 6 228 19 220 5 -3 9 1 9 8 0 9 3 9 10 -2 9 -13 10 -13 10 0z"/>
</g>
</svg>
